<svg xmlns="http://www.w3.org/2000/svg" viewBox="0 0 140 44" width="140" height="44" aria-hidden="true">
  <!-- Taxi verde (tonos más vivos, estilo NYC) -->
  <g transform="translate(2 6)">
    <path fill="#26c962" d="M4 24h6v-2h4v2h14v-2h4v2h6l2 10h-1v6h-5v-1H6v1H1v-6H0l2-10z"/>
    <path fill="#17a34a" d="M6 26v6h28v-6H6z"/>
    <rect x="22" y="10" width="16" height="8" rx="1" fill="#26c962"/>
    <rect x="23" y="11" width="14" height="6" rx="0.5" fill="#13803d"/>
    <rect x="8" y="14" width="8" height="8" rx="0.5" fill="#0d9488" opacity="0.9"/>
    <rect x="18" y="14" width="8" height="8" rx="0.5" fill="#0d9488" opacity="0.9"/>
    <rect x="28" y="14" width="8" height="8" rx="0.5" fill="#0d9488" opacity="0.9"/>
    <circle cx="12" cy="38" r="4" fill="#0d0d0d" stroke="#2a2a2a" stroke-width="0.8"/>
    <circle cx="36" cy="38" r="4" fill="#0d0d0d" stroke="#2a2a2a" stroke-width="0.8"/>
    <circle cx="50" cy="28" r="2" fill="#fef08a"/>
  </g>
</svg>
